<svg width="238" height="61" viewBox="0 0 238 61" fill="none" xmlns="http://www.w3.org/2000/svg">
<path d="M47.4 17V18C46.32 18 43.32 18.12 39.96 27.3L33.06 45.3H32.06L23.3 26.3L16.22 45.3H15.22C4.62 22.26 3.78 20.64 3.78 20.64C2.46 18.06 1 18.06 0 18.06V17H14.16V18C10.62 18 12.66 21.9 12.66 21.9L18.9 35.1L22.74 25C20.94 21 20.74 20.62 20.74 20.62C19.36 18.04 17.92 18.04 16.9 18.04V17H31.08V18C27.3 18 29.52 21.9 29.52 21.9L35.76 35.1L38.82 27.1C38.82 27.1 42.3 18.04 35.64 18.04V17H47.4Z" fill="black"/>
<path d="M75.52 40.62L76.52 41.04C76.04 42.96 73.28 45.3 69.52 45.3C69.52 45.3 64.18 45.3 63.52 40.44C62.62 43.08 59.08 45.3 54.82 45.3C54.82 45.3 47.92 45.3 47.92 39.18C47.92 32.64 52.92 32.04 63.46 29.4V25.68C63.46 19.44 59.98 16.32 55.84 18.48C53.92 19.48 53.68 20.48 54.1 20.48C54.5432 20.5275 54.971 20.67 55.3541 20.8978C55.7372 21.1256 56.0667 21.4333 56.32 21.8C56.575 22.1694 56.7541 22.5857 56.8469 23.0248C56.9397 23.464 56.9443 23.9171 56.8606 24.3581C56.7769 24.799 56.6064 25.219 56.3591 25.5935C56.1119 25.9681 55.7926 26.2898 55.42 26.54C54.6691 27.0392 53.7525 27.2246 52.8666 27.0563C51.9806 26.8881 51.1958 26.3797 50.68 25.64C50.3304 25.1111 50.1292 24.4979 50.0975 23.8646C50.0659 23.2313 50.2049 22.6012 50.5 22.04C51.5256 20.0972 53.1736 18.5548 55.18 17.66C56.9923 16.7922 58.9935 16.3933 61 16.5C68.86 16.5 71 21.42 71 28.5V37.44C71 37.44 70.94 41.64 73.88 41.64C74.2228 41.6471 74.5603 41.5545 74.8514 41.3734C75.1426 41.1923 75.3748 40.9306 75.52 40.62ZM63.46 30.48C57.58 31.8 55.6 34.62 55.6 37.68C55.6 37.68 55.6 41.68 59.5 41.68C60.3982 41.635 61.2616 41.3184 61.9759 40.772C62.6901 40.2256 63.2217 39.4751 63.5 38.62L63.46 30.48Z" fill="black"/>
<path d="M108.27 43.74V44.74H95.91V43.74C98.19 43.08 98.31 40.5 98.31 37.44V25.8C98.3587 25.1429 98.2676 24.4828 98.0425 23.8635C97.8175 23.2442 97.4636 22.6797 97.0043 22.2071C96.545 21.7346 95.9908 21.3649 95.3781 21.1223C94.7654 20.8798 94.1082 20.7699 93.45 20.8C91.11 20.8 88.35 23.32 88.35 25.72V37.56C88.35 40.86 88.71 43.14 90.81 43.74V44.74H78.51V43.74C80.79 43.08 80.85 40.62 80.85 37.56V24C80.85 21.9 80.31 21.24 77.85 19.92V18.92L88.35 16.52V22.94C89.73 19.28 94.47 16.52 98.25 16.52C102.93 16.52 105.81 18.38 105.81 25.64V37.44C105.81 40.74 106.11 43.2 108.27 43.74Z" fill="black"/>
<path d="M143.35 42.9V43.9L134.53 45.22C132.85 45.46 132.85 44.14 132.85 44.14V40.44C130.93 43.98 126.49 45.3 123.67 45.3C116.89 45.3 110.89 39.96 110.89 30.48C110.89 20.82 117.25 16.48 125.65 16.48C128.167 16.4321 130.652 17.0532 132.85 18.28V6.84C132.85 4.74 132.25 4.14 129.79 3.24V2.24L140.29 0V38.94C140.29 41.88 140.89 42.6 143.35 42.9ZM132.85 27.54C132.85 19.98 129.13 17.54 125.71 17.54C121.33 17.54 119.41 20.84 119.41 29.96C119.41 39.62 121.41 43.22 126.25 43.22C130.33 43.22 132.85 40.22 132.85 36.02V27.54Z" fill="black"/>
<path d="M158.9 43.74V44.74H146.6V43.74C148.88 43.02 149 40.5 149 37.44V24.12C149 22.12 148.4 21.24 145.94 19.92V18.92L156.44 16.52V37.44C156.44 40.8 156.74 43.14 158.9 43.74ZM152.12 11.74C151.038 11.74 150 11.3101 149.235 10.545C148.47 9.77985 148.04 8.74208 148.04 7.66C148.04 6.57792 148.47 5.54015 149.235 4.77501C150 4.00986 151.038 3.58 152.12 3.58C153.202 3.58 154.24 4.00986 155.005 4.77501C155.77 5.54015 156.2 6.57792 156.2 7.66C156.2 8.74208 155.77 9.77985 155.005 10.545C154.24 11.3101 153.202 11.74 152.12 11.74Z" fill="black"/>
<path d="M192.63 21.48C191.953 22.0744 191.068 22.3765 190.168 22.3203C189.269 22.2641 188.428 21.8541 187.83 21.18C187.544 20.8555 187.332 20.473 187.207 20.0588C187.083 19.6445 187.05 19.2083 187.11 18.78C187.17 18.3 185.73 18.6 184.71 19.86C186.139 21.3856 186.915 23.41 186.87 25.5C186.87 30.36 182.67 34.5 175.29 34.5C173.408 34.5708 171.532 34.2648 169.77 33.6C168.15 34.32 164.49 39.24 170.85 39.24H179.25C183.39 39.24 190.35 39.72 189.25 48.78C189.25 48.78 188.95 53.78 182.65 57.36C174.25 62.04 163.33 61.5 160.99 56.58C158.89 52.2 162.55 47.4 166.09 45.84C165.134 45.4079 164.328 44.7024 163.773 43.8126C163.217 42.9227 162.938 41.8884 162.97 40.84C163.048 39.1297 163.64 37.4825 164.667 36.1128C165.694 34.7431 167.11 33.7142 168.73 33.16C167.269 32.4909 166.03 31.4181 165.158 30.0681C164.286 28.718 163.819 27.147 163.81 25.54C163.81 20.68 168.01 16.54 175.33 16.54C179.33 16.54 182.05 17.54 183.97 19.18C184.627 18.2443 185.465 17.4491 186.433 16.8413C187.402 16.2334 188.482 15.825 189.61 15.64C190.216 15.5154 190.843 15.5494 191.432 15.7386C192.021 15.9278 192.55 16.2659 192.97 16.72C193.262 17.054 193.485 17.4426 193.626 17.8632C193.767 18.2839 193.823 18.7283 193.792 19.1708C193.76 19.6134 193.641 20.0453 193.442 20.4416C193.242 20.838 192.967 21.1909 192.63 21.48ZM167.13 46.48C161.61 49.6 165.87 54.4 165.87 54.4C169.17 58.4 176.43 59.8 182.07 56.5C186.07 54.1 185.55 50.5 185.55 50.5C185.55 50.5 185.01 47.32 180.63 47.32H172.47C170.649 47.3921 168.832 47.0927 167.13 46.44V46.48ZM179.85 25.5C179.85 18.78 177.85 17.5 175.29 17.5C172.29 17.5 170.79 18.76 170.79 25.5C170.79 32.24 172.65 33.5 175.29 33.5C177.93 33.5 179.85 32.22 179.85 25.5Z" fill="black"/>
<path d="M222.6 40.62L223.6 41.04C223.12 42.96 220.36 45.3 216.6 45.3C216.6 45.3 211.26 45.3 210.6 40.44C209.7 43.08 206.16 45.3 201.9 45.3C201.9 45.3 195 45.3 195 39.18C195 32.64 200 32.04 210.54 29.4V25.68C210.54 19.44 207.06 16.32 202.92 18.48C201 19.48 200.76 20.48 201.18 20.48C201.623 20.5275 202.051 20.67 202.434 20.8978C202.817 21.1256 203.147 21.4333 203.4 21.8C203.655 22.1694 203.834 22.5857 203.927 23.0248C204.02 23.464 204.024 23.9171 203.941 24.3581C203.857 24.799 203.686 25.219 203.439 25.5935C203.192 25.9681 202.873 26.2898 202.5 26.54C201.749 27.0392 200.832 27.2246 199.947 27.0563C199.061 26.8881 198.276 26.3797 197.76 25.64C197.41 25.1111 197.209 24.4979 197.178 23.8646C197.146 23.2313 197.285 22.6012 197.58 22.04C198.606 20.0972 200.254 18.5548 202.26 17.66C204.069 16.7784 206.07 16.3657 208.08 16.46C215.94 16.46 218.08 21.38 218.08 28.46V37.4C218.08 37.4 218.02 41.6 220.96 41.6C221.298 41.6106 221.633 41.524 221.924 41.3503C222.214 41.1766 222.449 40.9231 222.6 40.62ZM210.54 30.48C204.66 31.8 202.68 34.62 202.68 37.68C202.68 37.68 202.68 41.68 206.58 41.68C207.478 41.6351 208.342 41.3184 209.056 40.772C209.77 40.2256 210.302 39.4751 210.58 38.62L210.54 30.48Z" fill="black"/>
<path d="M232.48 45.06C231.815 45.0733 231.154 44.9538 230.536 44.7085C229.918 44.4632 229.355 44.097 228.88 43.6314C228.405 43.1657 228.027 42.61 227.77 41.9968C227.512 41.3836 227.38 40.7251 227.38 40.06C227.38 39.3942 227.511 38.7349 227.766 38.1198C228.021 37.5047 228.394 36.9458 228.865 36.475C229.336 36.0042 229.895 35.6307 230.51 35.3759C231.125 35.1211 231.784 34.99 232.45 34.99C233.116 34.99 233.775 35.1211 234.39 35.3759C235.005 35.6307 235.564 36.0042 236.035 36.475C236.506 36.9458 236.879 37.5047 237.134 38.1198C237.389 38.7349 237.52 39.3942 237.52 40.06C237.52 40.72 237.389 41.3734 237.136 41.9827C236.882 42.5919 236.51 43.1449 236.041 43.6097C235.573 44.0746 235.017 44.442 234.406 44.6909C233.794 44.9398 233.14 45.0653 232.48 45.06Z" fill="#FF4A01"/>
</svg>
